<svg xmlns="http://www.w3.org/2000/svg" width="105.922" height="105.922" viewBox="0 0 105.922 105.922"><defs><style>.a{fill:#b2e7ff;}.b{fill:#ffaf30;}</style></defs><path class="a" d="M116.469,120.391a5.357,5.357,0,0,0-1.608.3V114.21a9.6,9.6,0,0,0-3.8-7.649,8.829,8.829,0,1,0-10.777-.568,9.511,9.511,0,0,0-1.028.716l-6.2,4.956H81.318v-8.827h2.676a7.5,7.5,0,0,0,5.67-2.589l9.722-11.217a5.493,5.493,0,0,0,1.561-3.847h3.32a1.765,1.765,0,0,0,1.765-1.765V65.765A1.765,1.765,0,0,0,104.268,64H90.145a1.765,1.765,0,0,0-1.765,1.765V83.419a1.755,1.755,0,0,0,.207.828L82.353,90.48h-4.57a8.827,8.827,0,1,0-14.05.081,10.164,10.164,0,0,0-8.895,10.07v11.034H44.865l-6.2-4.956a9.533,9.533,0,0,0-1.028-.716,8.825,8.825,0,1,0-10.776.567,9.6,9.6,0,0,0-3.8,7.65v6.477a5.357,5.357,0,0,0-1.608-.3A5.3,5.3,0,0,0,16,125.684v4.758a18.323,18.323,0,0,0,12.358,17.3v4.526H26.592a1.765,1.765,0,0,0-1.579.976l-1.765,3.531a1.765,1.765,0,1,0,3.158,1.579l1.277-2.555h4.879l1.277,2.555A1.765,1.765,0,1,0,37,156.775l-1.765-3.531a1.765,1.765,0,0,0-1.579-.976H31.888v-3.694a18.392,18.392,0,0,0,2.407.163h6.358l-.062,8.814a1.765,1.765,0,0,0,1.765,1.778h7.185a1.765,1.765,0,0,0,1.765-1.765V136.38a8.819,8.819,0,0,0-3.536-7.061H58.262l-1.655,28.142a1.765,1.765,0,0,0,1.762,1.869H65.43a1.765,1.765,0,0,0,1.753-1.559l1.778-15.108,1.778,15.108a1.765,1.765,0,0,0,1.753,1.559h7.061a1.765,1.765,0,0,0,1.762-1.869L79.66,129.318H90.151a8.819,8.819,0,0,0-3.537,7.061v21.184a1.765,1.765,0,0,0,1.765,1.765h7.185a1.765,1.765,0,0,0,1.765-1.778l-.062-8.814h6.358a18.392,18.392,0,0,0,2.407-.163v3.694h-1.765a1.765,1.765,0,0,0-1.579.976l-1.765,3.531a1.765,1.765,0,1,0,3.158,1.579l1.277-2.555h4.879l1.277,2.555a1.765,1.765,0,1,0,3.158-1.579l-1.765-3.531a1.765,1.765,0,0,0-1.579-.976h-1.765v-4.525a18.323,18.323,0,0,0,12.358-17.3v-4.758a5.3,5.3,0,0,0-5.453-5.293Zm-10.435-26.38a5.3,5.3,0,1,1-5.3,5.3,5.3,5.3,0,0,1,5.3-5.3ZM91.911,67.531H102.5V81.654H99.669c-.1-.125-.213-.248-.331-.366a5.517,5.517,0,0,0-7.427-.333ZM70.726,79.888a5.3,5.3,0,1,1-5.3,5.3A5.3,5.3,0,0,1,70.726,79.888ZM58.369,100.631a6.628,6.628,0,0,1,6.62-6.62H83.084a1.765,1.765,0,0,0,1.248-.517l9.709-9.709a1.979,1.979,0,0,1,2.8,2.8q-.044.044-.086.092L87,97.937a3.969,3.969,0,0,1-3,1.371H79.553a1.765,1.765,0,0,0-1.765,1.765v17.654H65.43V102.838a1.765,1.765,0,1,0-3.531,0v15.888H60.134v-5.3a1.765,1.765,0,0,0-1.765-1.765ZM26.592,99.307a5.3,5.3,0,1,1,5.3,5.3,5.3,5.3,0,0,1-5.3-5.3Zm14.086,45.9H34.3a14.781,14.781,0,0,1-14.765-14.765v-4.758a1.765,1.765,0,1,1,3.531,0v5a11.007,11.007,0,0,0,10.994,10.994H40.7Zm7.1-8.827V155.8H44.135l.11-15.876a1.765,1.765,0,0,0-1.765-1.778H34.056a7.472,7.472,0,0,1-7.464-7.464V114.21a6.076,6.076,0,0,1,9.872-4.744l6.678,5.343a1.765,1.765,0,0,0,1.1.387H56.6v3.531H42.9l-6.689-3.344a1.765,1.765,0,0,0-2.555,1.579v12.358a1.765,1.765,0,0,0,1.765,1.765H42.48A5.3,5.3,0,0,1,47.777,136.38Zm-7.061-14.8v5.97H37.184v-7.736ZM63.86,155.8H60.241l1.558-26.48h5.176Zm10.2,0-3.115-26.48h5.177l1.558,26.48ZM44.246,125.788v-3.531h49.43v3.531Zm51.2,12.358a1.765,1.765,0,0,0-1.765,1.778l.11,15.876H90.145V136.38a5.3,5.3,0,0,1,5.3-5.3H102.5a1.765,1.765,0,0,0,1.765-1.765V116.961a1.765,1.765,0,0,0-2.555-1.579l-6.689,3.344H81.318V115.2H93.676a1.765,1.765,0,0,0,1.1-.387l6.679-5.343a6.076,6.076,0,0,1,9.871,4.745v16.471a7.472,7.472,0,0,1-7.464,7.464Zm1.765-10.592v-5.97l3.531-1.765v7.736Zm21.184,2.889a14.781,14.781,0,0,1-14.765,14.765H97.244l-.024-3.531h6.647a11.007,11.007,0,0,0,10.994-10.994v-5a1.765,1.765,0,1,1,3.531,0Z" transform="translate(-16 -53.408)"/><circle class="b" cx="2" cy="2" r="2" transform="translate(39.192 6.204)"/><circle class="b" cx="2" cy="2" r="2" transform="translate(31.192 6.204)"/><circle class="b" cx="2" cy="2" r="2" transform="translate(24.192 6.204)"/><path class="b" d="M118.533,33.654,125.222,37a1.765,1.765,0,0,0,2.555-1.579V24.827A8.837,8.837,0,0,0,118.95,16H104.827a8.827,8.827,0,0,0,0,17.654Zm-19-8.827a5.3,5.3,0,0,1,5.3-5.3H118.95a5.3,5.3,0,0,1,5.3,5.3v7.736l-4.507-2.253a1.764,1.764,0,0,0-.79-.186H104.827A5.3,5.3,0,0,1,99.531,24.827Z" transform="translate(-78.346 -16)"/></svg>