<svg xmlns="http://www.w3.org/2000/svg" width="221.158" height="66.647" viewBox="0 0 221.158 66.647"><defs><style>.a{opacity:0.67;}.b{fill:#f90;}.b,.c{fill-rule:evenodd;}.c{fill:#545454;}</style></defs><g class="a" transform="translate(0 0)"><path class="b" d="M246.778,201.866c-12.852,9.473-31.48,14.527-47.518,14.527a85.986,85.986,0,0,1-58.05-22.151c-1.2-1.088-.125-2.57,1.319-1.723a116.835,116.835,0,0,0,58.079,15.4,115.49,115.49,0,0,0,44.3-9.059c2.176-.924,4,1.425,1.868,3" transform="translate(-109.576 -149.746)"/><path class="b" d="M587.958,187.612c-1.637-2.1-10.859-.992-15-.5-1.261.154-1.454-.943-.318-1.733,7.345-5.17,19.4-3.677,20.8-1.945s-.366,13.824-7.268,19.591c-1.059.886-2.07.414-1.6-.761,1.55-3.87,5.025-12.544,3.379-14.652" transform="translate(-445.413 -141.605)"/><path class="c" d="M573.517,10.736V5.711a1.24,1.24,0,0,1,1.271-1.271h22.5a1.253,1.253,0,0,1,1.3,1.271v4.3c-.01.722-.616,1.665-1.694,3.158L585.233,29.817a24.84,24.84,0,0,1,12.833,2.753,2.29,2.29,0,0,1,1.194,1.954v5.362c0,.732-.809,1.588-1.656,1.146a25.917,25.917,0,0,0-23.769.039c-.78.424-1.6-.424-1.6-1.155V34.823a6.077,6.077,0,0,1,.828-3.456L586.571,12H574.817a1.245,1.245,0,0,1-1.3-1.261" transform="translate(-445.682 -3.458)"/><path class="c" d="M178.529,39.819h-6.845a1.293,1.293,0,0,1-1.223-1.165V3.526a1.285,1.285,0,0,1,1.319-1.261h6.383A1.289,1.289,0,0,1,179.4,3.44V8.032h.125c1.665-4.438,4.794-6.508,9.011-6.508,4.284,0,6.96,2.07,8.886,6.508A10.108,10.108,0,0,1,214.8,5.365c2.166,2.955,1.723,7.249,1.723,11.013l-.01,22.171a1.293,1.293,0,0,1-1.319,1.271h-6.835a1.3,1.3,0,0,1-1.232-1.271V19.93a43.97,43.97,0,0,0-.193-6.585c-.51-2.359-2.041-3.023-4.024-3.023a4.547,4.547,0,0,0-4.091,2.878c-.7,1.771-.635,4.736-.635,6.729V38.549a1.293,1.293,0,0,1-1.319,1.271h-6.835a1.294,1.294,0,0,1-1.232-1.271l-.01-18.618c0-3.918.645-9.685-4.217-9.685-4.919,0-4.727,5.622-4.727,9.685V38.549a1.293,1.293,0,0,1-1.319,1.271" transform="translate(-132.763 -1.187)"/><path class="c" d="M724.714,1.524c10.156,0,15.653,8.722,15.653,19.812,0,10.715-6.075,19.215-15.653,19.215-9.973,0-15.4-8.722-15.4-19.591,0-10.936,5.5-19.437,15.4-19.437m.058,7.172c-5.044,0-5.362,6.874-5.362,11.158s-.067,13.458,5.3,13.458c5.3,0,5.555-7.393,5.555-11.9a32.477,32.477,0,0,0-1.02-9.319,4.282,4.282,0,0,0-4.477-3.4" transform="translate(-552.441 -1.187)"/><path class="c" d="M880.909,39.819h-6.816a1.3,1.3,0,0,1-1.232-1.271l-.01-35.138a1.3,1.3,0,0,1,1.319-1.146h6.344a1.31,1.31,0,0,1,1.223.982V8.619h.125c1.916-4.8,4.6-7.1,9.328-7.1a8.981,8.981,0,0,1,7.99,4.14c1.791,2.811,1.791,7.538,1.791,10.936V38.712a1.315,1.315,0,0,1-1.319,1.107h-6.864a1.3,1.3,0,0,1-1.213-1.107V19.632c0-3.841.443-9.463-4.284-9.463a4.474,4.474,0,0,0-3.957,2.811,15.547,15.547,0,0,0-1.088,6.652V38.549a1.316,1.316,0,0,1-1.338,1.271" transform="translate(-679.813 -1.187)"/><path class="c" d="M425.905,21.853c0,2.667.067,4.89-1.28,7.259a5.561,5.561,0,0,1-4.736,3.109c-2.628,0-4.168-2-4.168-4.958,0-5.834,5.227-6.893,10.185-6.893v1.483m6.9,16.683a1.429,1.429,0,0,1-1.617.164,16.683,16.683,0,0,1-3.928-4.563c-3.754,3.831-6.421,4.977-11.283,4.977-5.767,0-10.243-3.552-10.243-10.667a11.617,11.617,0,0,1,7.3-11.186c3.716-1.637,8.9-1.925,12.871-2.378V14c0-1.627.125-3.552-.838-4.958a4.556,4.556,0,0,0-3.841-1.781c-2.609,0-4.929,1.338-5.5,4.111a1.432,1.432,0,0,1-1.194,1.251l-6.633-.712a1.206,1.206,0,0,1-1.02-1.434C408.4,2.426,415.682,0,422.189,0c3.331,0,7.682.886,10.31,3.408,3.331,3.109,3.013,7.259,3.013,11.774V25.848c0,3.206,1.329,4.611,2.58,6.344a1.294,1.294,0,0,1-.029,1.819c-1.4,1.165-3.88,3.331-5.247,4.544l-.01-.019" transform="translate(-316.005 0)"/><path class="c" d="M20.168,21.853c0,2.667.067,4.89-1.28,7.259a5.55,5.55,0,0,1-4.736,3.109c-2.628,0-4.159-2-4.159-4.958,0-5.834,5.227-6.893,10.176-6.893v1.483m6.9,16.683a1.429,1.429,0,0,1-1.617.164,16.852,16.852,0,0,1-3.928-4.563c-3.754,3.831-6.411,4.977-11.283,4.977C4.486,39.114,0,35.562,0,28.448A11.63,11.63,0,0,1,7.3,17.261c3.716-1.637,8.9-1.925,12.871-2.378V14c0-1.627.125-3.552-.828-4.958A4.58,4.58,0,0,0,15.5,7.259c-2.609,0-4.939,1.338-5.507,4.111a1.432,1.432,0,0,1-1.184,1.251l-6.643-.712a1.212,1.212,0,0,1-1.02-1.434C2.676,2.426,9.945,0,16.452,0c3.331,0,7.682.886,10.31,3.408,3.331,3.109,3.013,7.259,3.013,11.774V25.848c0,3.206,1.329,4.611,2.58,6.344a1.286,1.286,0,0,1-.019,1.819c-1.4,1.165-3.88,3.331-5.247,4.544l-.019-.019" transform="translate(0 0)"/></g></svg>