<svg xmlns="http://www.w3.org/2000/svg" width="242.092" height="70.672" viewBox="0 0 242.092 70.672"><defs><style>.a{fill:#345cdc;}.a,.b{fill-rule:evenodd;}.b{fill:#385cdc;}</style></defs><g transform="translate(0.092 0.01)"><path class="a" d="M34.3.175A10.74,10.74,0,0,0,32.487,1.96c-.9,1.083-1.191,1.428-1.452,1.717-.151.166-.588.689-.973,1.16S29.2,5.876,28.994,6.1s-.549.631-.768.908-.52.632-.666.787a1.679,1.679,0,0,0-.266.327.816.816,0,0,1-.177.224c-.1.1-.381.424-.631.723s-.533.627-.63.729a.891.891,0,0,0-.177.225,2.47,2.47,0,0,1-.3.379l-.3.339-1.49-.13c-.819-.071-2.3-.2-3.28-.278l-3.58-.3c-5.307-.443-5.258-.442-6.058-.031a1.45,1.45,0,0,0-.7.7c-.411.8-.412.75.031,6.058.082.984.217,2.6.3,3.58s.208,2.46.281,3.28c.13,1.461.129,1.492-.073,1.631a6.9,6.9,0,0,0-.569.476c-.375.347-.471.428-1.4,1.192-.3.249-.735.619-.957.822s-.63.549-.908.768-.631.519-.787.666a1.1,1.1,0,0,1-.378.266.088.088,0,0,0-.1.076,5.628,5.628,0,0,1-.806.731,5.589,5.589,0,0,0-.806.731c0,.042-.065.076-.144.076a.192.192,0,0,0-.176.092,6.85,6.85,0,0,1-.788.721c-.415.347-.807.68-.871.741s-.419.378-.789.706C-.453,34.627-.466,35.979.992,37.287c.231.207.49.448.578.536s.545.473,1.016.856.88.722.908.754.527.458,1.11.946a12.817,12.817,0,0,1,1.092.977.185.185,0,0,0,.168.09.185.185,0,0,1,.168.09,6.927,6.927,0,0,0,.79.714c.416.344,1.024.859,1.352,1.146s.717.612.866.723.588.485.974.831l.7.629-.127,1.085c-.07.6-.128,1.335-.129,1.64s-.071,1.258-.155,2.118-.22,2.38-.3,3.379-.2,2.382-.254,3.076c-.3,3.572.322,4.294,3.462,4.031l3.04-.253c1.682-.14,4.876-.416,7.588-.655,1.1-.1,1.539-.033,1.539.229a.656.656,0,0,0,.177.26c.1.1.381.426.63.722s.545.642.656.766c.274.306.825.968,1.465,1.757.292.361.585.7.65.756s.431.487.812.958c.645.8.978,1.19,1.363,1.6.085.091.358.416.6.721.515.637.448.558,1.307,1.52,1.409,1.578,3.206,1.836,4.041.58.067-.1.749-.9,1.047-1.233.114-.126.411-.471.661-.768s.533-.622.63-.722a.776.776,0,0,0,.177-.234.776.776,0,0,1,.177-.233c.1-.1.381-.427.63-.724s.534-.611.631-.7a.505.505,0,0,0,.177-.284c0-.071.034-.129.076-.129a3.488,3.488,0,0,0,.58-.626c.277-.344.618-.745.756-.891.258-.273.329-.356,1.109-1.308.249-.3.58-.689.735-.856s.45-.522.656-.791l.375-.489.5.06c.278.033.89.085,1.361.115s1.787.141,2.925.247,2.952.264,4.034.352,2.49.206,3.129.261c3.329.289,3.777-.5,3.284-5.756-.086-.916-.226-2.5-.31-3.53s-.248-2.812-.363-3.97a13.97,13.97,0,0,1-.125-2.175c.047-.039.333-.272.638-.517s.645-.541.756-.655.52-.46.909-.768.821-.669.963-.8.5-.444.807-.693.6-.5.663-.555.33-.283.6-.5.532-.449.592-.5.36-.3.665-.55.627-.519.716-.6c.281-.27.727-.646,1.3-1.095,2.871-2.246,2.892-3.439.1-5.756-.416-.346-.87-.73-1.009-.855s-.636-.542-1.1-.928-.968-.808-1.109-.94-.551-.478-.912-.768-.771-.637-.912-.769c-.224-.209-.71-.618-1.6-1.349-.136-.111-.329-.281-.43-.378a.851.851,0,0,0-.229-.177,3.619,3.619,0,0,1-.479-.391c-.24-.215-.565-.5-.723-.634l-.288-.243.208-2.013c.114-1.107.279-2.921.367-4.03s.229-2.743.315-3.631c.514-5.341.1-5.958-3.793-5.6-.583.053-1.944.168-3.025.254-1.952.156-4.02.331-6.889.585l-1.493.132-.471-.559c-.259-.307-.571-.672-.692-.811s-.41-.479-.641-.756c-.552-.664-1.235-1.468-1.361-1.605-.056-.06-.306-.358-.555-.662l-.655-.8c-.111-.135-.27-.32-.353-.411s-.4-.458-.7-.815-.652-.762-.775-.9-.5-.592-.846-1.009a7.006,7.006,0,0,0-.713-.79.141.141,0,0,1-.09-.119A5.765,5.765,0,0,0,36.357.2,2.752,2.752,0,0,0,34.3.175m1.675,9.477a7.008,7.008,0,0,0,.707.816.145.145,0,0,1,.088.126.643.643,0,0,0,.177.277,5.074,5.074,0,0,1,.832,1.035.087.087,0,0,0,.082.091,3.348,3.348,0,0,1,.574.672c1,1.358,1.24,1.517,1.727,1.129.063-.05.54-.31,1.059-.578s1.194-.635,1.5-.816.645-.369.756-.419.566-.292,1.009-.537.834-.45.866-.453c.057-.005.162.3.462,1.356s.47,1.631.639,2.168c.1.3.243.782.325,1.059s.232.763.331,1.08l.18.575.817-.053c.45-.03,1.292-.12,1.873-.2s1.6-.191,2.269-.244,1.342-.125,1.5-.158l.285-.061-.061.842c-.056.765-.117,1.381-.454,4.573-.159,1.5-.2,1.385.525,1.6.347.1.88.267,1.185.364.664.212,1.293.4,2.774.82.61.174,1.233.361,1.384.416l.275.1-.418.77c-.229.424-.566,1.043-.748,1.375s-.448.832-.593,1.109-.365.686-.49.908-.377.675-.56,1.006l-.332.6.286.24.5.42c.118.1.525.423.9.721s.8.648.945.779.449.376.684.546a1.485,1.485,0,0,1,.429.393c0,.046.068.084.151.084s.151.036.151.081a2.808,2.808,0,0,0,.6.529c.726.541.716.476.129.924-.264.2-.593.464-.731.582-.564.483-.685.583-1.411,1.162-.416.332-.8.653-.857.714s-.387.326-.737.59c-1.1.834-1.084.784-.659,1.56.2.365.483.891.628,1.168a4.7,4.7,0,0,0,.319.555,3.129,3.129,0,0,1,.258.454c.384.768,1.276,2.421,1.413,2.619.2.293.177.339-.24.415a5.442,5.442,0,0,0-.732.2c-.194.07-.716.225-1.159.346s-.966.28-1.16.353-.648.212-1.009.308-.827.237-1.035.313a2.269,2.269,0,0,1-.58.14c-.235,0-.243.106-.1,1.443.258,2.441.405,3.92.463,4.648l.064.8-.539-.069c-.3-.038-1.039-.111-1.649-.161s-1.45-.137-1.865-.192-1.193-.129-1.727-.165l-.971-.065-.125.336a6.4,6.4,0,0,0-.2.689c-.044.194-.127.489-.185.655s-.268.847-.468,1.513-.424,1.415-.5,1.664-.189.649-.254.888c-.137.5-.194.5-1.115-.014-.3-.171-.713-.4-.908-.5s-.67-.362-1.059-.575-1.046-.562-1.463-.775a6.622,6.622,0,0,1-.808-.456c-.361-.477-.617-.331-1.619.926-.464.582-.87,1.081-.9,1.109s-.329.39-.659.8-.668.824-.751.911-.31.371-.5.631c-.48.643-.451.654-1.361-.53-.278-.36-.572-.724-.656-.808s-.4-.47-.7-.857-.623-.781-.706-.874-.379-.465-.656-.825a4.181,4.181,0,0,0-.635-.71,3.392,3.392,0,0,0-1.231.541,5.74,5.74,0,0,1-.605.347c-.3.16-.895.475-1.311.7s-.938.5-1.16.611a3.169,3.169,0,0,0-.454.258,5.079,5.079,0,0,1-.578.327l-.527.27-.116-.422c-.064-.232-.172-.6-.241-.826-.139-.446-.3-.993-.755-2.572-.168-.582-.37-1.263-.448-1.513s-.171-.583-.205-.74c-.042-.193-.11-.269-.206-.232a6.553,6.553,0,0,1-.929.114c-.432.033-1.375.123-2.1.2-2.42.263-3.6.373-3.629.338a12.747,12.747,0,0,1,.113-1.346c.592-5.283.606-5.5.362-5.5a3.1,3.1,0,0,1-.634-.139c-.246-.077-.719-.22-1.052-.319s-.855-.258-1.16-.355-.827-.254-1.16-.351-.776-.238-.985-.313a2.32,2.32,0,0,0-.561-.137c-.367,0-.534-.223-.377-.5.077-.139.261-.479.409-.756s.371-.686.5-.908.434-.789.686-1.26a20.693,20.693,0,0,1,1.079-1.957c.326-.393.242-.632-.412-1.17-.352-.289-.752-.622-.891-.741s-.57-.463-.958-.764-.765-.608-.837-.68-.413-.345-.756-.606c-.988-.751-1.156-.937-.971-1.076.594-.449,1.473-1.136,1.565-1.222.06-.057.306-.263.546-.457s.486-.4.546-.455.313-.26.563-.453.545-.434.655-.537.394-.326.629-.5c.565-.409.595-.561.237-1.2-.166-.3-.416-.766-.557-1.043s-.484-.913-.764-1.412-.577-1.044-.662-1.21-.286-.549-.445-.852c-.33-.625-.323-.671.126-.76.18-.036.531-.129.781-.209s.93-.281,1.513-.449,1.331-.39,1.664-.5.889-.275,1.237-.377l.633-.186-.056-.706c-.068-.85-.309-3.178-.5-4.84-.077-.665-.132-1.216-.122-1.225.026-.024,1.711.146,3.648.365.943.108,2.042.22,2.443.25l.729.055.062-.278c.034-.153.12-.46.191-.681s.2-.653.289-.958c.3-1.034.782-2.67.923-3.126.077-.25.169-.6.2-.781.091-.459.168-.473.774-.137.295.163.876.468,1.292.678s.819.429.9.487c.174.131,1.7.961,2.409,1.313.623.307.664.293,1.247-.451a4.733,4.733,0,0,1,.563-.635.3.3,0,0,0,.129-.227c0-.08.036-.146.08-.146a1.958,1.958,0,0,0,.446-.479c.2-.264.483-.615.627-.782s.591-.719.992-1.229c.882-1.119.747-1.1,1.5-.158m131.441,6.1c-.193.22-.2.422-.226,6.808l-.027,6.582-.527-.395a9.354,9.354,0,0,0-2.343-1.176c-.166-.039-.506-.129-.756-.2a15.612,15.612,0,0,0-4.351-.426,11.983,11.983,0,0,0-4.069.707,10.78,10.78,0,0,0-4.3,2.958,1.567,1.567,0,0,1-.4.445c-.046,0-.084.068-.084.151s-.034.152-.076.152c-.07,0-.262.288-.607.907a21.473,21.473,0,0,0-.964,2.32c-.033.139-.151.592-.264,1.008-.785,2.893-.7,8.859.157,11.349a2.808,2.808,0,0,1,.144.555,2.137,2.137,0,0,0,.2.551,2.9,2.9,0,0,1,.2.477,8.982,8.982,0,0,0,1.138,2.094c.042,0,.076.053.076.116,0,.763,3.813,3.716,4.8,3.716a.865.865,0,0,1,.336.1c.966.517,4.817.687,6.918.306a8.289,8.289,0,0,0,4.1-1.583l.67-.509.04.618c.07,1.089.026,1.072,2.727,1.072,2.163,0,2.309-.012,2.5-.2s.2-.336.2-19.464V15.527h-2.5c-2.465,0-2.5,0-2.7.227m37.264.078c-.329.329-.258,33.336.074,34.448.981,3.29,2.964,4.476,7.484,4.476,2.355,0,2.168.208,2.2-2.456s.122-2.52-1.441-2.59c-1.395-.064-1.948-.211-2.408-.644-.715-.672-.665.618-.665-17.3V15.628h-2.521c-2.4,0-2.531.01-2.725.2M100.441,17.02c-.452.184-1.141.738-1.141.918a.1.1,0,0,1-.089.11,8.7,8.7,0,0,0-1.07,2.219c-.1.249-.214.545-.26.655s-.181.451-.3.756-.256.646-.3.756-.183.451-.3.756-.377.94-.572,1.412l-.437,1.059c-.045.111-.181.451-.3.756s-.255.645-.3.756-.182.451-.3.756-.273.69-.344.857c-.116.271-.448,1.07-.67,1.614-.045.111-.181.451-.3.756s-.282.7-.358.873a1.733,1.733,0,0,0-.139.421,1.367,1.367,0,0,1-.149.388,15.515,15.515,0,0,0-.652,1.546c-.12.3-.26.646-.309.756-.121.272-.781,1.9-1.025,2.521-.108.277-.234.595-.28.706s-.161.405-.256.655-.232.59-.3.756c-.246.57-.841,2.017-1.057,2.572-.119.3-.254.646-.3.756s-.163.406-.26.655-.235.59-.306.756c-.208.481-.814,1.966-1.05,2.572-.119.3-.254.646-.3.756s-.162.406-.259.656-.234.59-.306.756-.207.506-.3.756-.253.635-.351.857-.324.767-.5,1.21-.393.975-.478,1.181a2.606,2.606,0,0,0-.166.756l-.011.383,2.471.028c1.359.015,2.565,0,2.681-.023.245-.06.426-.408,1.206-2.325.2-.5.408-1,.455-1.109s.183-.451.3-.756.256-.646.3-.756.2-.5.347-.857.3-.746.351-.857a17.91,17.91,0,0,0,.809-2.036c0-.111,1.359-.129,7.772-.108l7.771.026.136.252c.074.139.3.661.507,1.16s.43,1.044.5,1.21.208.506.3.756c.285.735.326.835.532,1.311.109.249.3.7.423,1.008s.284.691.354.857.278.666.461,1.109c.525,1.272.224,1.167,3.264,1.136,3.166-.032,3.049.111,1.925-2.347-.076-.166-.3-.716-.5-1.221s-.453-1.141-.568-1.412c-.267-.631-.335-.8-.549-1.35-.1-.25-.234-.59-.3-.756s-.207-.507-.3-.756-.211-.545-.257-.655-.2-.5-.35-.857-.324-.791-.395-.958-.208-.507-.306-.756-.235-.59-.307-.756-.207-.507-.3-.756-.21-.545-.256-.656-.248-.61-.45-1.109c-.462-1.139-.745-1.83-.909-2.219-.071-.166-.206-.506-.3-.756s-.235-.6-.312-.781l-.277-.656c-.076-.18-.217-.532-.313-.781-.2-.529-.508-1.274-.784-1.916-.218-.509-.28-.663-.526-1.311-.1-.249-.231-.59-.3-.756s-.2-.484-.281-.706c-.157-.416-.8-1.987-1.029-2.521-.071-.166-.208-.506-.3-.756s-.231-.59-.3-.756-.209-.507-.307-.756-.234-.59-.3-.756-.249-.617-.4-1-.311-.77-.355-.857-.159-.362-.255-.612-.232-.59-.3-.756-.207-.507-.3-.756-.211-.545-.257-.656-.2-.5-.352-.855c-.782-1.908-2.248-2.747-3.743-2.139M101.654,27.1c.1.263.247.615.321.781s.346.825.6,1.463.649,1.591.871,2.118c.51,1.215.5,1.189.939,2.269.521,1.283,1.135,2.766,1.428,3.454.331.776.427,1.009.591,1.437.1.25.22.542.277.649a3.136,3.136,0,0,1,.181.454c.043.143.11.339.149.436.068.167-.238.177-5.587.177-6.076,0-5.839.021-5.561-.48.053-.1.263-.584.465-1.083s.586-1.429.851-2.067.649-1.568.851-2.068.405-1,.451-1.109.163-.406.26-.656.269-.658.382-.908.241-.545.284-.655c.124-.322.8-1.985.957-2.345.3-.709.425-1,.594-1.437.416-1.074.435-1.086.691-.428m124.866-.217a18.663,18.663,0,0,0-4.74,1.167,13.948,13.948,0,0,0-1.967.982,1.609,1.609,0,0,1-.316.2,2.634,2.634,0,0,0-1.046,1.007c-.068.232.2,1.123.337,1.125a1.216,1.216,0,0,1,.267.429,2.674,2.674,0,0,0,.263.477,8.689,8.689,0,0,1,.486.825c.607,1.11.856,1.145,2.158.3a9.323,9.323,0,0,1,1.784-.942,10.287,10.287,0,0,1,4.488-.782,16.957,16.957,0,0,1,2.017.087c.222.048.641.135.931.194A4.369,4.369,0,0,1,234.72,36.6l-.031.655-4.74.059c-5.794.073-6.577.193-9.009,1.392-5,2.463-5.753,10.47-1.341,14.247a4.076,4.076,0,0,0,.638.487,2.821,2.821,0,0,1,.519.3,2.643,2.643,0,0,0,.523.3,2.856,2.856,0,0,1,.49.189,14.66,14.66,0,0,0,9.592.071,8.222,8.222,0,0,0,2.37-1.383.1.1,0,0,1,.108-.087,1.521,1.521,0,0,0,.471-.4c.394-.439.531-.5.531-.23,0,1.974,1.129,2.554,4.967,2.551l2.193,0V52.7c0-2.358.036-2.264-.906-2.375-1.089-.128-1,.55-1.043-8.025-.041-8.042-.083-8.6-.8-10.438-1.487-3.813-5.829-5.512-12.73-4.982m-39.281.088c-.083.021-.514.088-.958.151a11.419,11.419,0,0,0-4.5,1.573.562.562,0,0,1-.235.144A9.593,9.593,0,0,0,180,30.048c-.129.139-.427.457-.662.707A11.214,11.214,0,0,0,177.5,33.68c-1.654,3.367-1.813,10.389-.318,14.068a10.2,10.2,0,0,0,1.593,2.874.1.1,0,0,1,.093.114,10.365,10.365,0,0,0,1.8,1.8.1.1,0,0,1,.114.088c0,.29,2.575,1.544,4.034,1.965a17.583,17.583,0,0,0,8.27-.008,13.316,13.316,0,0,0,3.31-1.311.444.444,0,0,1,.224-.129,11.38,11.38,0,0,0,2.693-2.078c1.4-1.4,1.407-1.5.152-2.627-.485-.435-1-.9-1.144-1.043-1.125-1.078-1.305-1.076-2.413.024a9.648,9.648,0,0,1-10.131,1.969,7.785,7.785,0,0,1-.908-.394l-.421-.336a1.678,1.678,0,0,0-.379-.254,6.489,6.489,0,0,1-1.725-2.275,8.934,8.934,0,0,1-.61-2.136c.039-.1,1.909-.128,9.2-.128,6.806,0,9.232-.031,9.479-.12.451-.163.471-.309.394-2.887a20.264,20.264,0,0,0-.836-6.019,11.8,11.8,0,0,0-1.205-2.641,1.561,1.561,0,0,1-.232-.439.1.1,0,0,0-.094-.1c-.051,0-.122-.088-.156-.2-.327-1.03-3.376-3.208-5.431-3.879a17.672,17.672,0,0,0-5.614-.617m-54.71.179a9.341,9.341,0,0,0-5.538,2.822l-.462.528V27.936l-.309-.159a14.711,14.711,0,0,0-4.824.094l-.212.192V41.092c0,12.494.008,13.035.185,13.2a17.174,17.174,0,0,0,5,.008c.141-.141.159-1,.159-7.949,0-9.18,0-9.2.89-11.054,1.947-4.069,8.861-4.293,10.8-.349.876,1.778.906,2.159.91,11.344,0,6.818.021,7.743.16,7.942.155.221.19.224,2.547.221l2.39,0,.18-.248c.236-.324.215-17.5-.022-18.756a11.875,11.875,0,0,0-1.687-4.4,8.693,8.693,0,0,0-1.738-1.9c-.049,0-.116-.068-.148-.151a.248.248,0,0,0-.212-.151c-.085,0-.154-.042-.154-.094s-.091-.123-.2-.158a1.027,1.027,0,0,1-.329-.183,8.51,8.51,0,0,0-2.192-.968,15.025,15.025,0,0,0-5.194-.286m29.9,4.743a10.032,10.032,0,0,1,.958.4c.166.089.447.237.623.329a8.185,8.185,0,0,1,2.982,3.909,38.113,38.113,0,0,1,.01,8.855,6.981,6.981,0,0,1-12.616,1.757,3.491,3.491,0,0,1-.229-.451c-.056-.139-.143-.343-.192-.454-.526-1.188-.712-2.55-.709-5.194,0-3.814.566-5.673,2.265-7.5a6.928,6.928,0,0,1,6.908-1.651m27.582.02c3.238.517,5.151,2.638,5.492,6.088.159,1.606,1.023,1.433-6.992,1.4l-6.87-.026.033-.807a9.064,9.064,0,0,1,1.2-3.882,7.123,7.123,0,0,1,7.141-2.777m44.567,9.8c.243.093.236,4-.008,4.729a5.379,5.379,0,0,1-2,2.744,9.11,9.11,0,0,1-2.488.974c-1.453.355-5.091.128-5.575-.347a.378.378,0,0,0-.231-.094,4.268,4.268,0,0,1-1.649-1.361c-.05-.111-.131-.27-.18-.353a3.2,3.2,0,0,1-.416-1.9c0-2.809,1.688-4.145,5.5-4.35,1.7-.091,6.844-.123,7.051-.044" transform="translate(0 0)"/><path class="b" transform="translate(-0.036 -0.004)"/><path class="b" transform="translate(-0.036 -0.004)"/><path class="b" transform="translate(-0.036 -0.004)"/><path class="b" transform="translate(-0.036 -0.004)"/></g></svg>