<svg xmlns="http://www.w3.org/2000/svg" width="102.081" height="102.082" viewBox="0 0 102.081 102.082"><defs><style>.a{fill:#b2e7ff;}</style></defs><g transform="translate(0)"><path class="a" d="M99.094,5.981H54.035V2.991a2.991,2.991,0,0,0-5.981,0V5.981H2.995A2.989,2.989,0,0,0,0,8.972V69.183a2.989,2.989,0,0,0,2.991,2.991H44.82L24.783,97.221a2.992,2.992,0,1,0,4.673,3.738l18.6-23.25V99.09a2.991,2.991,0,0,0,5.981,0V77.709l18.6,23.25a2.992,2.992,0,1,0,4.673-3.738L57.269,72.174H99.094a2.989,2.989,0,0,0,2.991-2.991V8.972A2.989,2.989,0,0,0,99.094,5.981ZM96.1,66.193H5.985V11.963H96.1ZM21.138,60.212H45.063a2.989,2.989,0,0,0,2.991-2.991V26.916a2.989,2.989,0,0,0-2.991-2.991H36.091V20.934a2.991,2.991,0,0,0-5.981,0v2.991H21.138a2.989,2.989,0,0,0-2.991,2.991V57.221A2.989,2.989,0,0,0,21.138,60.212Zm2.991-30.305H42.072V54.23H24.128Zm32.9,30.305H80.951a2.989,2.989,0,0,0,2.991-2.991V26.916a2.989,2.989,0,0,0-2.991-2.991H71.979V20.934a2.991,2.991,0,1,0-5.981,0v2.991H57.026a2.989,2.989,0,0,0-2.991,2.991V57.221A2.989,2.989,0,0,0,57.026,60.212Zm2.991-30.305H77.96V54.23H60.016Z" transform="translate(-0.004)"/></g></svg>