<svg xmlns="http://www.w3.org/2000/svg" width="204.139" height="66.879" viewBox="0 0 204.139 66.879"><defs><style>.a{opacity:0.77;}.b{fill:#545454;}</style></defs><g class="a" transform="translate(-0.075 419.604)"><path class="b" d="M23.512-419.492a26.74,26.74,0,0,0-19,11.533A25.343,25.343,0,0,0,.3-396.809a21.4,21.4,0,0,0,0,6.221,26.3,26.3,0,0,0,18.041,21.567,24.246,24.246,0,0,0,8.2,1.244,24.059,24.059,0,0,0,14.2-4.02,29,29,0,0,0,5.567-5.28,23.6,23.6,0,0,0,3.876-8.885,20.281,20.281,0,0,0,.351-5.232c.016-2.026-.048-3.94-.112-4.275l-.128-.59H26.543v7.178H43.292v.463a17.5,17.5,0,0,1-1.611,5.28,9.431,9.431,0,0,1-2.52,3.35,15.662,15.662,0,0,1-7.976,4.435,13.671,13.671,0,0,1-4.4.415,17.692,17.692,0,0,1-4.036-.271,18.611,18.611,0,0,1-9.412-5.073,16.88,16.88,0,0,1-3.462-4.849,17.748,17.748,0,0,1-1.946-9.475,16.669,16.669,0,0,1,1.994-7.753,18.374,18.374,0,0,1,16.526-10.129,17.869,17.869,0,0,1,11.6,4.02l1.292.973.351-.383c.207-.207,1.276-1.34,2.409-2.5l2.042-2.122-.542-.558a27.678,27.678,0,0,0-4.4-3.238,27.347,27.347,0,0,0-8.183-2.967A34.931,34.931,0,0,0,23.512-419.492Z" transform="translate(0)"/><path class="b" d="M1021-384.434v24.566l3.717-.032,3.7-.048-.016-.367c0-.191-.016-11.23-.032-24.518L1028.338-409H1021Z" transform="translate(-858.069 -8.913)"/><path class="b" d="M346.881-303.485a18.208,18.208,0,0,0-6.588,2.393,18.536,18.536,0,0,0-4.594,4.227,19.468,19.468,0,0,0-2.584,5.583,13.066,13.066,0,0,0-.415,4.387,12.423,12.423,0,0,0,.431,4.371,16.163,16.163,0,0,0,6.827,9.507,15.034,15.034,0,0,0,8.742,2.664,15.6,15.6,0,0,0,9.268-2.185,16.485,16.485,0,0,0,7.577-9.89,20.238,20.238,0,0,0,.319-7.513A16.293,16.293,0,0,0,349.9-303.564,23.144,23.144,0,0,0,346.881-303.485Zm5.025,6.8a9.563,9.563,0,0,1,5.711,4.865,10.129,10.129,0,0,1,1.085,5.408,9.685,9.685,0,0,1-6.652,9.188,11.976,11.976,0,0,1-5.424,0,8.22,8.22,0,0,1-3.7-2.329,10.118,10.118,0,0,1-3-7.306,10.4,10.4,0,0,1,4.227-8.566,10.652,10.652,0,0,1,3.637-1.515A11.261,11.261,0,0,1,351.906-296.689Z" transform="translate(-279.565 -97.519)"/><path class="b" d="M575.561-303.477a16.59,16.59,0,0,0-13.128,9.954,15.8,15.8,0,0,0-1.212,7.115,15.648,15.648,0,0,0,1.707,7.1,16.313,16.313,0,0,0,11.757,8.789,22.527,22.527,0,0,0,7.625-.255,16.345,16.345,0,0,0,12.315-15.33,15.972,15.972,0,0,0-4.977-12.825,16.089,16.089,0,0,0-8.072-4.307A24.4,24.4,0,0,0,575.561-303.477Zm5.264,6.923a10.032,10.032,0,0,1,6.508,9.619,10.677,10.677,0,0,1-1.18,4.929,7.587,7.587,0,0,1-1.914,2.584,8.741,8.741,0,0,1-6.365,2.584,8.368,8.368,0,0,1-6.429-2.792,7.865,7.865,0,0,1-1.866-2.473,10.846,10.846,0,0,1,1.866-12.2A9.009,9.009,0,0,1,580.825-296.554Z" transform="translate(-471.619 -97.527)"/><path class="b" d="M803.272-303.415a16.786,16.786,0,0,0-13.049,13.08,17.951,17.951,0,0,0,.8,9.571,16.553,16.553,0,0,0,8.072,8.853c5.28,2.632,11.182,2.058,14.995-1.452l.7-.654.112.447a19.547,19.547,0,0,1-.415,5.376A7.84,7.84,0,0,1,808.5-262.1a12.073,12.073,0,0,1-4.419.064,9.737,9.737,0,0,1-5.854-4.467l-.75-1.228-2.871,1.18c-1.563.654-2.983,1.244-3.143,1.308-.271.112-.239.239.415,1.5a15.512,15.512,0,0,0,9.635,7.864c5.695,1.659,12.171.128,15.936-3.781a15.94,15.94,0,0,0,4.132-8.742c.255-1.356.287-3.19.335-17.834l.048-16.3h-7v1.276a4.981,4.981,0,0,1-.08,1.276,14.812,14.812,0,0,1-1.324-.989,12.155,12.155,0,0,0-4.53-2.281A17.032,17.032,0,0,0,803.272-303.415Zm5.966,6.843a8.457,8.457,0,0,1,5.009,4.642,11.438,11.438,0,0,1-.207,10.512,8.635,8.635,0,0,1-13.846,1.914,9.93,9.93,0,0,1-2.935-7.338c0-5.121,3.19-9.252,7.816-10.113A9.67,9.67,0,0,1,809.238-296.572Z" transform="translate(-663.839 -97.509)"/><path class="b" d="M1101.148-303.694a18.469,18.469,0,0,0-2.6.67c-5.392,1.85-9.2,6.524-10.273,12.618a23.124,23.124,0,0,0,.271,7.577,16.061,16.061,0,0,0,9.172,10.991,16.884,16.884,0,0,0,16.638-1.9,22.963,22.963,0,0,0,3.86-3.844c.144-.255-.16-.51-2.6-2.138-1.531-1-2.839-1.834-2.9-1.834s-.271.191-.447.431a11.124,11.124,0,0,1-4.658,3.573,7.343,7.343,0,0,1-3.19.367,7.7,7.7,0,0,1-3.142-.351,9.065,9.065,0,0,1-4.514-3.8,2.376,2.376,0,0,1-.367-.782c.016-.016,5.057-2.106,11.166-4.642l11.1-4.578-.319-.893C1115.345-300.487,1108.9-304.794,1101.148-303.694Zm5.136,6.668a6.643,6.643,0,0,1,3.286,2.281,2.941,2.941,0,0,1,.495.814c-.207.16-14.692,6.157-14.883,6.157-.207,0-.08-1.452.223-2.616a8.755,8.755,0,0,1,2.473-4.339,7.959,7.959,0,0,1,6-2.6A7.313,7.313,0,0,1,1106.284-297.026Z" transform="translate(-914.449 -97.279)"/></g></svg>