<svg xmlns="http://www.w3.org/2000/svg" width="115.417" height="105.799" viewBox="0 0 115.417 105.799"><defs><style>.a{fill:#b2e7ff;}.b{fill:#ffaf30;}</style></defs><path class="a" d="M125.647,267.847a7.627,7.627,0,0,0-5.055,2.33l-8.943,5.365h-7.162a1.924,1.924,0,0,0-1.924,1.924v3.847H98.422l-1.656-9.935a1.924,1.924,0,0,0-3.795.633l1.55,9.3H88.842l-1.4-9.819a5.771,5.771,0,0,0-3.132-4.345L78.416,264.2a1.923,1.923,0,0,0-.86-.2H69.861a1.924,1.924,0,0,0-.861.2l-5.891,2.945a5.771,5.771,0,0,0-3.131,4.346l-1.4,9.818H52.9l1.55-9.3a1.924,1.924,0,0,0-3.795-.633L49,281.313H44.854v-3.847a1.924,1.924,0,0,0-1.924-1.924H35.769l-8.943-5.365a7.627,7.627,0,0,0-5.055-2.33A5.777,5.777,0,0,0,16,273.618V296.7a1.924,1.924,0,0,0,1.315,1.825l.608.2v13.361H16v3.847H131.417v-3.847h-1.924V294.946l.758-.325a1.924,1.924,0,0,0,1.166-1.767V273.618a5.777,5.777,0,0,0-5.771-5.771Zm-17.313,36.278,4.424,7.966h-4.424Zm0-18.965H114.1a1.924,1.924,0,0,0,.861-.2l4.91-2.455v3.516l-11.542,7.214ZM63.785,272.04a1.927,1.927,0,0,1,1.045-1.45l5.484-2.743H77.1l5.485,2.743a1.928,1.928,0,0,1,1.045,1.449l1.324,9.273H81.4v-7.694a1.924,1.924,0,0,0-1.924-1.924H67.938a1.924,1.924,0,0,0-1.924,1.924v7.694H62.461Zm13.771,9.272H69.861v-5.771h7.694Zm26.931,3.847v3.847H42.931V285.16ZM85.25,293.184v-.33H96.792v19.236H79.735l1.572-12.572,2.253-2.253A5.733,5.733,0,0,0,85.25,293.184Zm-21.393,4.081,2.253,2.253,1.572,12.572H50.625V292.854H62.167v.33A5.733,5.733,0,0,0,63.858,297.265Zm-24.774,3.642-2-6.682a1.925,1.925,0,0,0-.853-1.1l-8.684-5.21V282.5l4.911,2.455a1.923,1.923,0,0,0,.86.2h5.771Zm-17.313-.9,6.124,2.041,2.869,10.038H21.771Zm12.993,12.079L31.315,300.02a1.924,1.924,0,0,0-1.241-1.3l-10.227-3.408v-21.7a1.926,1.926,0,0,1,1.924-1.924,4.071,4.071,0,0,1,2.414,1.283,1.9,1.9,0,0,0,.443.366l9.618,5.771a1.927,1.927,0,0,0,.99.274h5.771v1.924H33.766l-7.288-3.644a1.924,1.924,0,0,0-2.784,1.721v9.618a1.924,1.924,0,0,0,.934,1.649l8.98,5.388,4.814,16.046Zm8.167,0V292.854h3.847v19.236Zm28.629,0-1.713-13.7a1.919,1.919,0,0,0-.548-1.121l-2.72-2.72a1.912,1.912,0,0,1-.564-1.361v-.33H81.4v.33a1.912,1.912,0,0,1-.564,1.361l-2.72,2.72a1.92,1.92,0,0,0-.549,1.121l-1.713,13.7Zm29.08,0V292.854h3.847v19.236Zm16.521,0-8.181-14.726,13.839-8.65a1.925,1.925,0,0,0,.9-1.631v-7.694a1.924,1.924,0,0,0-2.784-1.721l-7.288,3.644H106.41v-1.924h5.771a1.927,1.927,0,0,0,.99-.274l9.618-5.771a1.9,1.9,0,0,0,.443-.366,4.049,4.049,0,0,1,2.414-1.283,1.926,1.926,0,0,1,1.924,1.924v17.968l-12.3,5.271a1.924,1.924,0,0,0-1.108,2.234l3.25,13Zm8.486,0h-4.269l-3.086-12.343,7.354-3.152Z" transform="translate(-16 -210.139)"/><path class="b" d="M267.847,62.754v6.1a1.924,1.924,0,0,0,2.991,1.6l6.724-4.483a5.767,5.767,0,0,0,5.675,4.806h7.112l11.057,7.371a1.924,1.924,0,0,0,2.991-1.6v-6.1a5.781,5.781,0,0,0,3.847-5.441V53.465a5.777,5.777,0,0,0-5.771-5.771h-7.694V45.771A5.777,5.777,0,0,0,289.007,40H269.771A5.777,5.777,0,0,0,264,45.771V57.313A5.781,5.781,0,0,0,267.847,62.754Zm34.625-11.212a1.926,1.926,0,0,1,1.924,1.924V65.007a1.926,1.926,0,0,1-1.924,1.924,1.924,1.924,0,0,0-1.924,1.924v4.1L292,67.254a1.925,1.925,0,0,0-1.067-.323h-7.694a1.926,1.926,0,0,1-1.924-1.924V63.472l.582-.388h7.112a5.777,5.777,0,0,0,5.771-5.771V51.542Zm-21.16,7.694V53.465a1.926,1.926,0,0,1,1.924-1.924h7.694v5.771a1.926,1.926,0,0,1-1.924,1.924ZM267.847,45.771a1.926,1.926,0,0,1,1.924-1.924h19.236a1.926,1.926,0,0,1,1.924,1.924v1.924h-7.694a5.777,5.777,0,0,0-5.771,5.771v7.947l-5.771,3.847v-4.1a1.924,1.924,0,0,0-1.924-1.924,1.926,1.926,0,0,1-1.924-1.924Z" transform="translate(-204.368 -40)"/><path class="b" d="M37.771,87.083v5.771a1.924,1.924,0,0,0,2.991,1.6l11.057-7.371h9.036a5.777,5.777,0,0,0,5.771-5.771V69.771A5.777,5.777,0,0,0,60.854,64H37.771A5.777,5.777,0,0,0,32,69.771V81.313a5.777,5.777,0,0,0,5.771,5.771ZM35.847,69.771a1.926,1.926,0,0,1,1.924-1.924H60.854a1.926,1.926,0,0,1,1.924,1.924V81.313a1.926,1.926,0,0,1-1.924,1.924H51.236a1.926,1.926,0,0,0-1.067.323l-8.551,5.7v-4.1a1.924,1.924,0,0,0-1.924-1.924H37.771a1.926,1.926,0,0,1-1.924-1.924Z" transform="translate(-28.153 -58.229)"/><rect class="b" width="4" height="3" transform="translate(11.417 16.166)"/><rect class="b" width="4" height="3" transform="translate(19.417 16.166)"/><rect class="b" width="3" height="3" transform="translate(27.417 16.166)"/><path class="a" d="M231.694,207.389A7.694,7.694,0,1,0,224,199.695,7.694,7.694,0,0,0,231.694,207.389Zm0-11.542a3.847,3.847,0,1,1-3.847,3.847A3.847,3.847,0,0,1,231.694,195.847Z" transform="translate(-173.986 -155.451)"/><path class="a" d="M432,215.695A7.695,7.695,0,1,0,439.695,208,7.694,7.694,0,0,0,432,215.695Zm7.695-3.847a3.847,3.847,0,1,1-3.847,3.847A3.847,3.847,0,0,1,439.695,211.847Z" transform="translate(-331.972 -167.604)"/><path class="a" d="M23.694,223.389A7.694,7.694,0,1,0,16,215.695,7.694,7.694,0,0,0,23.694,223.389Zm0-11.542a3.847,3.847,0,1,1-3.847,3.847A3.847,3.847,0,0,1,23.694,211.847Z" transform="translate(-16 -167.604)"/></svg>